<svg width="42" height="37" viewBox="0 0 42 37" fill="none" xmlns="http://www.w3.org/2000/svg">
<path d="M16.9368 0.606388C15.5581 1.56222 12.7558 4.32694 12.7558 4.72778C12.7558 4.77917 13.1818 5.02584 13.7086 5.28278C16.9592 6.86556 19.7726 9.31167 22.0368 12.5183L22.687 13.4433L23.3819 13.2069C25.1866 12.6108 26.8567 11.0383 27.3051 9.5275C27.4172 9.14722 27.4172 9.13695 26.9576 8.86972C26.5204 8.62306 24.9176 7.57472 24.7158 7.4C24.5925 7.29722 24.8391 6.42361 25.1417 5.85834C25.7246 4.81 27.1481 3.73083 28.5605 3.28889C30.0513 2.81611 31.8895 3.0525 33.4476 3.91584C34.8151 4.68667 36.1041 6.00222 36.6534 7.215C36.9672 7.91389 37.012 9.59945 36.7206 10.1853C36.5525 10.5347 36.4964 10.5656 35.7791 10.6992C35.3531 10.7814 34.3891 10.8431 33.6269 10.8431H32.2594L32.3379 11.1514C32.6742 12.3231 31.968 13.7928 30.3091 15.3961C28.7622 16.8864 26.5092 18.1814 25.265 18.2739L24.671 18.315L24.6149 19.425C24.5477 20.7508 24.4132 21.0386 23.7406 21.3572C23.2586 21.5936 23.169 21.5936 21.3867 21.5422C20.3667 21.5114 19.0104 21.46 18.3603 21.4189C17.2394 21.3572 17.1385 21.3778 16.2082 21.6758C15.6814 21.8506 15.02 21.9944 14.751 21.9944C13.5404 21.9944 11.6349 22.7242 10.3907 23.68C9.02323 24.7078 7.90233 26.3317 7.37551 28.0275L7.10649 28.8806H3.55325H0L0.369896 29.5178C0.571658 29.8775 0.907927 30.7408 1.10969 31.45L1.47958 32.7347L1.55805 32.2414C1.64772 31.6967 2.08487 30.8128 2.29784 30.7511C2.39872 30.7306 2.43235 30.9772 2.43235 31.6453C2.43235 32.6628 2.63411 33.5878 3.06005 34.5436C3.39632 35.3144 3.39632 35.2939 3.09368 35.2219C2.81345 35.15 3.63171 35.9619 4.4948 36.5992L5.04404 37H6.92715H8.81026L9.3595 36.5992C9.94236 36.1778 11.1866 35.0061 11.1866 34.8828C11.1866 34.8417 11.0969 34.8828 10.9848 34.9753C10.7942 35.1294 10.514 35.2117 10.514 35.1089C10.514 35.0883 10.6373 34.8108 10.7942 34.4819C11.2202 33.6083 11.4332 32.6525 11.4444 31.5733C11.4556 30.9875 11.5004 30.6381 11.5789 30.6586C11.8143 30.7306 12.2066 31.5528 12.285 32.1386L12.3635 32.7347L12.7446 31.45C12.9464 30.7408 13.2826 29.8775 13.4844 29.5178L13.8543 28.8806H10.8391C9.18015 28.8806 7.82387 28.8394 7.82387 28.7983C7.82387 28.7469 7.91354 28.4592 8.03684 28.1508C8.743 26.2392 10.1778 24.7592 12.2626 23.7725L13.0697 23.3922L14.8967 23.6286C19.4476 24.2042 22.5076 25.1086 24.0096 26.3214C24.4692 26.6914 24.5477 26.7222 25.1866 26.7222C25.9488 26.7222 27.675 26.27 27.6301 26.085C27.6189 26.0131 27.7983 25.9308 28.0561 25.9C28.8855 25.7869 30.9592 24.6256 31.0713 24.2042C31.1497 23.9164 31.3291 23.865 31.3851 24.1014C31.43 24.2864 33.1786 23.0839 34.916 21.6758C36.4628 20.4219 38.6261 18.2533 38.3795 18.2122C38.0881 18.1608 38.1778 18.0067 38.5365 17.9347C38.9064 17.8628 39.3211 17.4003 40.3411 15.9511C40.7895 15.3036 40.8791 15.1083 40.8231 14.8617C40.767 14.615 40.7895 14.5739 40.9352 14.6253C41.1482 14.6972 41.3163 14.43 41.6526 13.4639C42.1458 12.0661 42.1121 11.0692 41.5629 10.5964C41.3835 10.4422 41.0361 9.85639 40.7334 9.18833C39.7134 6.94778 38.3235 4.96417 36.8327 3.62806C34.8599 1.83972 33.0329 1.02778 30.9928 1.02778C29.3563 1.02778 27.5965 1.52111 26.285 2.35361C26.0048 2.52833 25.209 3.15528 24.514 3.74111C23.8079 4.33722 22.9896 4.95389 22.687 5.09778L22.1265 5.37528L21.2971 4.57361C20.4564 3.75139 19.0553 1.90139 18.3603 0.68861C18.1473 0.308331 17.9344 0 17.8895 0C17.8447 0 17.4188 0.2775 16.9368 0.606388ZM39.3099 11.8194C39.5004 12.1483 39.7582 12.765 39.8703 13.1864C40.1393 14.1319 40.2851 15.5708 40.1281 15.6633C40.0609 15.7044 39.9824 15.4064 39.9376 14.8719C39.7919 13.3919 39.3659 12.1586 38.6934 11.3467C38.5477 11.1719 38.4692 10.9972 38.5028 10.9561C38.6261 10.8431 38.9512 11.1925 39.3099 11.8194ZM38.5813 12.4361C39.1417 14.0292 39.4556 15.5194 39.2314 15.5194C39.1866 15.5194 39.0521 15.0878 38.9512 14.5636C38.8391 14.0497 38.5477 13.0733 38.3123 12.395C38.0657 11.7269 37.8639 11.1308 37.8639 11.0589C37.8751 10.7608 38.245 11.4597 38.5813 12.4361ZM39.9712 11.2028C40.0833 11.3775 40.0833 11.4083 39.9376 11.4083C39.8479 11.4083 39.7246 11.3158 39.6574 11.2028C39.5677 11.0486 39.5677 10.9972 39.6798 10.9972C39.7582 10.9972 39.8927 11.0897 39.9712 11.2028ZM37.4716 11.6344C37.5164 11.9325 37.7518 12.8883 37.9872 13.7619C38.3907 15.2214 38.4468 15.6839 38.2002 15.3242C38.0769 15.1289 37.3259 12.2922 37.2362 11.6344C37.1914 11.2953 37.2026 11.1 37.2811 11.1C37.3371 11.1 37.4268 11.3467 37.4716 11.6344ZM40.4196 11.8297C40.6101 12.1072 40.4756 12.2408 40.2626 11.9839C40.173 11.8708 40.1057 11.7475 40.1057 11.6961C40.1057 11.5419 40.2739 11.6139 40.4196 11.8297ZM40.7783 12.6622C40.7783 12.765 40.7334 12.8472 40.6774 12.8472C40.5541 12.8472 40.4308 12.4361 40.5205 12.3025C40.5989 12.1792 40.7783 12.4258 40.7783 12.6622ZM40.98 13.4228C41.0249 13.7619 40.8567 13.6694 40.7222 13.2686C40.6662 13.0939 40.6774 13.0425 40.7895 13.0733C40.8791 13.1042 40.9576 13.2583 40.98 13.4228ZM41.0921 14.1422C41.0361 14.43 40.7783 14.4403 40.7783 14.1525C40.7783 14.0189 40.8119 13.875 40.8567 13.8442C40.9688 13.7311 41.1369 13.9367 41.0921 14.1422ZM38.1554 15.9203C38.1217 15.9614 37.6173 16.0333 37.0457 16.0744C36.4628 16.1156 35.5212 16.2389 34.9384 16.3417C33.9408 16.5267 33.6045 16.5369 33.9296 16.3519C34.4676 16.0436 38.3347 15.6531 38.1554 15.9203ZM38.5365 16.5472C38.5365 16.5986 38.5028 16.65 38.4468 16.65C38.1217 16.65 35.3979 16.9789 34.6694 17.1125C33.6269 17.2872 33.4588 17.2975 33.5373 17.1742C33.6269 17.0406 34.5236 16.8658 36.2947 16.65C38.0881 16.4342 38.5365 16.4136 38.5365 16.5472ZM38.9064 17.2667C38.8615 17.3078 38.2338 17.4003 37.5277 17.4619C36.8215 17.5339 35.5885 17.6983 34.7815 17.8319C33.4027 18.0683 33.0329 18.0786 33.3691 17.8936C33.683 17.7086 38.6934 17.0303 38.9064 17.1433C38.9624 17.1639 38.9624 17.2256 38.9064 17.2667ZM37.92 18.2019C37.8303 18.3253 37.3035 18.3253 37.3035 18.2019C37.3035 18.0992 37.7406 17.9964 37.8975 18.0683C37.9424 18.0889 37.9536 18.1506 37.92 18.2019ZM37.0793 18.2944C37.0793 18.3458 36.9224 18.3972 36.7318 18.3972C36.5413 18.3972 36.418 18.3561 36.4628 18.2944C36.4964 18.2328 36.6534 18.1917 36.8103 18.1917C36.956 18.1917 37.0793 18.2328 37.0793 18.2944ZM36.2386 18.3972C36.205 18.4486 36.0481 18.5 35.8911 18.5C35.7454 18.5 35.6221 18.4486 35.6221 18.3972C35.6221 18.3356 35.7791 18.2944 35.9696 18.2944C36.1602 18.2944 36.2835 18.3356 36.2386 18.3972ZM35.398 18.4897C35.398 18.6028 34.8487 18.7056 34.7815 18.6028C34.759 18.5617 34.759 18.5 34.8039 18.4589C34.916 18.3664 35.398 18.3869 35.398 18.4897ZM34.5012 18.5925C34.5012 18.685 34.0417 18.8289 33.9632 18.7569C33.9408 18.7364 33.952 18.6747 33.9968 18.6131C34.0865 18.4794 34.5012 18.4589 34.5012 18.5925ZM33.7166 18.7056C33.7166 18.8289 33.1786 18.9625 33.0665 18.87C32.9768 18.7775 33.2682 18.6028 33.5261 18.6028C33.6269 18.6028 33.7166 18.6439 33.7166 18.7056ZM32.1025 19.4867C32.0689 19.5792 32.0353 19.6922 32.0353 19.7436C32.0353 19.795 31.9904 19.8361 31.9232 19.8361C31.7999 19.8361 31.7662 19.4969 31.8895 19.3942C32.024 19.2606 32.1698 19.3222 32.1025 19.4867ZM31.2058 19.7539C31.0152 20.5967 30.5893 23.0325 30.522 23.6389C30.4324 24.5433 30.3539 24.8208 30.253 24.7078C30.1297 24.5947 30.2754 23.4436 30.6453 21.3778C30.9704 19.5381 31.004 19.425 31.161 19.425C31.2394 19.425 31.2506 19.5483 31.2058 19.7539ZM30.3539 19.8361C30.3539 19.8875 30.2306 20.5658 30.0849 21.3469C29.9392 22.1281 29.7823 23.125 29.7374 23.5567C29.6477 24.3789 29.4572 24.6667 29.4572 23.9678C29.4572 23.1456 30.0961 19.7333 30.253 19.7333C30.3091 19.7333 30.3539 19.7744 30.3539 19.8361ZM29.5132 20.2678C29.2554 21.3058 29.0985 22.1794 29.0537 22.9194C28.9752 23.9678 28.9304 24.1733 28.7847 23.9472C28.6389 23.7108 29.0088 20.9564 29.2891 20.165C29.3787 19.9389 29.5805 20.0314 29.5132 20.2678ZM31.9456 20.4014C31.9232 20.5453 31.8559 20.6583 31.7999 20.6583C31.6878 20.6583 31.6654 20.2164 31.7662 20.1136C31.912 19.9903 32.0016 20.1444 31.9456 20.4014ZM31.8111 21.1106C31.8111 21.2544 31.7662 21.3983 31.699 21.4292C31.6317 21.4703 31.5869 21.3572 31.5869 21.1825C31.5869 21.0078 31.6429 20.8639 31.699 20.8639C31.7662 20.8639 31.8111 20.9769 31.8111 21.1106ZM31.699 21.8917C31.699 22.0561 31.6542 22.2 31.5869 22.2C31.4636 22.2 31.43 21.7581 31.5533 21.6553C31.6766 21.5319 31.699 21.5731 31.699 21.8917ZM31.5869 22.6419C31.5869 22.9092 31.486 23.0428 31.3627 22.9708C31.2506 22.9092 31.3627 22.4056 31.486 22.4056C31.5421 22.4056 31.5869 22.5083 31.5869 22.6419ZM31.4748 23.3511C31.4748 23.5258 31.273 23.8033 31.2058 23.7314C31.1161 23.6594 31.2618 23.2278 31.3739 23.2278C31.43 23.2278 31.4748 23.2894 31.4748 23.3511ZM26.8007 23.7828C27.7086 23.7828 28.4484 23.8136 28.4484 23.8547C28.4484 23.9472 27.5292 24.05 26.5989 24.05C25.3883 24.05 23.976 23.7622 24.1217 23.5464C24.1553 23.495 24.4019 23.5258 24.6597 23.6183C25.0296 23.7417 25.5453 23.7828 26.8007 23.7828ZM25.0521 24.42C25.6237 24.5433 26.1618 24.5742 27.249 24.5331C28.6726 24.4817 29.1433 24.5742 28.1457 24.7181C26.8231 24.8928 24.5028 24.6872 24.1441 24.3481C23.9872 24.2144 24.1666 24.2247 25.0521 24.42ZM25.0184 25.1394C25.7806 25.3244 27.2714 25.3758 28.2578 25.2525C29.1433 25.1292 29.0873 25.3347 28.1906 25.4786C27.7983 25.5403 27.193 25.5917 26.8567 25.5917C25.8927 25.5917 24.189 25.2628 24.189 25.0778C24.189 24.9442 24.2114 24.9442 25.0184 25.1394ZM24.7046 25.8486C24.8839 25.9719 24.8951 25.9925 24.727 26.0028C24.4692 26.0028 24.189 25.8897 24.189 25.7869C24.189 25.6431 24.458 25.6739 24.7046 25.8486ZM25.6461 26.0028C25.6461 26.0542 25.5228 26.1056 25.3771 26.1056C25.2202 26.1056 25.0633 26.0542 25.0296 26.0028C24.9848 25.9411 25.1081 25.9 25.2987 25.9C25.4892 25.9 25.6461 25.9411 25.6461 26.0028ZM26.5429 26.1056C26.5429 26.1569 26.3971 26.2083 26.2066 26.2083C26.0272 26.2083 25.8703 26.1569 25.8703 26.1056C25.8703 26.0439 26.0272 26.0028 26.2066 26.0028C26.3971 26.0028 26.5429 26.0439 26.5429 26.1056ZM27.3835 26.1056C27.3499 26.1569 27.193 26.2083 27.0361 26.2083C26.8903 26.2083 26.767 26.1569 26.767 26.1056C26.767 26.0439 26.924 26.0028 27.1145 26.0028C27.3051 26.0028 27.4284 26.0439 27.3835 26.1056ZM4.23699 30.9156C4.4948 30.7717 4.80865 30.8847 4.8759 31.1519C4.93195 31.3164 4.9992 31.3472 5.21217 31.2958C5.70537 31.1828 5.64932 31.6864 5.10008 32.2414C4.97679 32.3647 4.7414 32.4983 4.56205 32.5292C4.30425 32.5806 4.23699 32.6525 4.23699 32.8786C4.23699 33.1253 4.28183 33.1561 4.55084 33.1458C4.75261 33.1253 4.77502 33.1356 4.59568 33.1664C4.46117 33.1869 4.29304 33.3103 4.22578 33.4233C4.10249 33.6289 4.1249 33.6392 4.50601 33.5775C4.73019 33.5467 4.90953 33.5569 4.90953 33.6186C4.90953 33.67 4.79744 33.7111 4.65173 33.7111C4.39392 33.7111 4.1249 33.8858 4.1249 34.0503C4.1249 34.1017 4.31546 34.1222 4.55084 34.0811L4.96558 34.0297L4.60689 34.1736C4.36029 34.2764 4.23699 34.3997 4.23699 34.5333C4.23699 34.7081 4.27062 34.7286 4.44996 34.6361C4.57326 34.5847 4.7414 34.5333 4.81986 34.5436C4.89832 34.5436 4.79744 34.6156 4.58447 34.6978C4.2482 34.8314 4.21458 34.8828 4.28183 35.1603C4.31546 35.3556 4.30425 35.4481 4.23699 35.4069C4.16974 35.3761 4.1249 35.2322 4.1249 35.0986C4.1249 34.9033 4.04644 34.8314 3.82226 34.78C3.28423 34.6772 3.27302 34.6567 3.71017 34.6464C4.08007 34.6361 4.1249 34.6156 4.02402 34.4614C3.96798 34.3586 3.75501 34.225 3.54204 34.1531L3.17214 34.0194L3.59808 34.0811C3.97919 34.1222 4.02402 34.1119 3.9904 33.9475C3.96798 33.8447 3.77743 33.7008 3.56445 33.6289L3.17214 33.4953L3.59808 33.5467C3.95677 33.5878 4.01281 33.5672 4.01281 33.3925C4.01281 33.2486 3.91193 33.1767 3.67654 33.1253C3.4972 33.0944 3.34028 33.0225 3.34028 32.9711C3.34028 32.9094 3.40753 32.8889 3.48599 32.9197C4.05765 33.115 4.1249 33.115 4.1249 32.8786C4.1249 32.745 3.96798 32.4881 3.77743 32.3133C3.38511 31.9433 3.29544 31.3883 3.56445 30.9464C3.68775 30.7306 3.71017 30.7203 3.8671 30.8642C4.0016 30.9875 4.09128 30.9978 4.23699 30.9156ZM7.01682 31.1108C7.35309 31.9125 7.42034 32.3031 7.42034 33.1458C7.42034 34.0914 7.15133 35.1397 6.8711 35.3556C6.75901 35.4481 6.66934 35.335 6.46758 34.8725C6.03043 33.8447 6.14252 31.7686 6.66934 30.9053C6.75901 30.7614 6.90473 30.8436 7.01682 31.1108ZM9.6173 30.9875C9.71818 31.1006 9.80786 31.1108 9.95357 31.0389C10.3123 30.8642 10.4019 30.9258 10.4019 31.3472C10.4019 31.8919 10.2114 32.2414 9.76302 32.4881C9.52763 32.6217 9.39312 32.7758 9.39312 32.93C9.39312 33.1253 9.44917 33.1561 9.81906 33.1253C10.2562 33.0944 10.2114 33.1356 9.70697 33.2383C9.25862 33.3308 9.30345 33.6083 9.76302 33.6186C10.1329 33.6289 10.1105 33.6494 9.59488 33.7522C9.14653 33.8447 9.19136 34.1222 9.65093 34.1325C10.0208 34.1428 9.99841 34.1633 9.48279 34.2661C9.03444 34.3586 9.07927 34.6361 9.53884 34.6464L9.89753 34.6669L9.52763 34.7286C9.29224 34.7697 9.09048 34.8828 8.9896 35.0472L8.82146 35.3042L8.88872 35.0164C8.93355 34.78 8.88872 34.7081 8.58608 34.5231C8.2386 34.3175 8.38432 34.2969 8.8663 34.4819C9.00081 34.5333 9.05685 34.5025 9.05685 34.3792C9.05685 34.2867 8.91114 34.1531 8.72058 34.0914C8.54124 34.0297 8.38431 33.9372 8.38431 33.8961C8.38431 33.8447 8.56366 33.8756 8.77663 33.9578C9.13532 34.1017 9.16894 34.1017 9.16894 33.9269C9.16894 33.8344 9.00081 33.67 8.81026 33.5775C8.45157 33.4028 8.66454 33.3925 9.10169 33.5569C9.25861 33.6186 9.29224 33.5981 9.25861 33.4439C9.2362 33.3308 9.05685 33.1972 8.83267 33.115L8.44036 32.9814L8.8663 33.0328C9.24741 33.0739 9.28103 33.0636 9.28103 32.8375C9.28103 32.6628 9.18015 32.5394 8.94476 32.4264C8.56366 32.2517 8.27223 31.7994 8.27223 31.3883C8.27223 31.1622 8.31706 31.1211 8.54124 31.1622C8.70938 31.1931 8.84388 31.1417 8.93355 31.0183C9.09048 30.7922 9.42675 30.7717 9.6173 30.9875Z" fill="#EBDBCC"/>
</svg>
