<svg width="182" height="79" viewBox="0 0 182 79" fill="none" xmlns="http://www.w3.org/2000/svg">
<path d="M34.2891 1.29472C31.4979 3.33556 25.8246 9.23861 25.8246 10.0944C25.8246 10.2042 26.687 10.7308 27.7535 11.2794C34.3345 14.6589 40.0304 19.8817 44.6144 26.7283L45.9306 28.7033L47.3376 28.1986C50.9912 26.9258 54.3724 23.5683 55.2801 20.3425C55.5071 19.5306 55.5071 19.5086 54.5767 18.9381C53.6916 18.4114 50.4465 16.1731 50.0381 15.8C49.7884 15.5806 50.2877 13.7153 50.9004 12.5083C52.0804 10.27 54.9624 7.96584 57.8218 7.02222C60.8399 6.01278 64.5616 6.51751 67.7159 8.36084C70.4845 10.0067 73.0941 12.8156 74.2061 15.405C74.8415 16.8972 74.9323 20.4961 74.3423 21.7469C74.0019 22.4931 73.8884 22.5589 72.436 22.8442C71.5737 23.0197 69.6221 23.1514 68.079 23.1514H65.3104L65.4693 23.8097C66.1501 26.3114 64.7204 29.4495 61.3619 32.8728C58.2302 36.0547 53.6689 38.8197 51.15 39.0172L49.9473 39.105L49.8338 41.475C49.6977 44.3058 49.4254 44.9203 48.0638 45.6006C47.088 46.1053 46.9064 46.1053 43.2982 45.9956C41.2332 45.9297 38.4873 45.82 37.1711 45.7322C34.9018 45.6006 34.6976 45.6444 32.8141 46.2808C31.7475 46.6539 30.4086 46.9611 29.864 46.9611C27.4131 46.9611 23.5553 48.5192 21.0364 50.56C18.2679 52.7544 15.9986 56.2217 14.932 59.8425L14.3874 61.6639H7.19368H0L0.748869 63.0244C1.15734 63.7925 1.83813 65.6358 2.24661 67.15L2.99548 69.8931L3.15433 68.8397C3.33587 67.6767 4.2209 65.7894 4.65206 65.6578C4.8563 65.6139 4.92438 66.1406 4.92438 67.5669C4.92438 69.7394 5.33285 71.7144 6.19519 73.7553C6.87598 75.4011 6.87598 75.3572 6.26327 75.2036C5.69594 75.05 7.35253 76.7836 9.09989 78.1442L10.2118 79H14.0243H17.8367L18.9487 78.1442C20.1287 77.2444 22.6476 74.7428 22.6476 74.4794C22.6476 74.3917 22.4661 74.4794 22.2391 74.6769C21.8534 75.0061 21.286 75.1817 21.286 74.9622C21.286 74.9183 21.5357 74.3258 21.8534 73.6236C22.7157 71.7583 23.1469 69.7175 23.1695 67.4133C23.1922 66.1625 23.283 65.4164 23.4419 65.4603C23.9184 65.6139 24.7127 67.3694 24.8715 68.6203L25.0304 69.8931L25.8019 67.15C26.2104 65.6358 26.8912 63.7925 27.2997 63.0244L28.0485 61.6639H21.9441C18.5856 61.6639 15.8397 61.5761 15.8397 61.4883C15.8397 61.3786 16.0213 60.7642 16.2709 60.1058C17.7005 56.0242 20.6052 52.8642 24.8261 50.7575L26.46 49.9456L30.159 50.4503C39.3723 51.6792 45.5675 53.6103 48.6084 56.1997C49.5388 56.9897 49.6977 57.0556 50.9912 57.0556C52.5343 57.0556 56.029 56.09 55.9382 55.695C55.9155 55.5414 56.2786 55.3658 56.8006 55.3C58.4799 55.0586 62.6781 52.5789 62.905 51.6792C63.0638 51.0647 63.4269 50.955 63.5404 51.4597C63.6312 51.8547 67.1713 49.2872 70.6887 46.2808C73.8203 43.6036 78.2001 38.9733 77.7008 38.8856C77.1108 38.7758 77.2924 38.4467 78.0185 38.2931C78.7674 38.1395 79.607 37.1519 81.6721 34.0578C82.5798 32.6753 82.7614 32.2583 82.6479 31.7317C82.5344 31.205 82.5798 31.1172 82.8748 31.2269C83.306 31.3806 83.6464 30.81 84.3272 28.7472C85.3257 25.7628 85.2576 23.6342 84.1456 22.6247C83.7825 22.2956 83.0791 21.0447 82.4664 19.6183C80.4013 14.8344 77.5873 10.5992 74.5692 7.74639C70.5752 3.92805 66.8763 2.19444 62.7461 2.19444C59.433 2.19444 55.8702 3.24778 53.2151 5.02528C52.6478 5.39833 51.0366 6.73695 49.6296 7.98778C48.1999 9.26056 46.5433 10.5772 45.9306 10.8845L44.796 11.477L43.1167 9.76528C41.4147 8.00973 38.5781 4.05972 37.1711 1.47028C36.74 0.658333 36.3088 0 36.218 0C36.1273 0 35.2649 0.592499 34.2891 1.29472ZM79.5843 25.2361C79.9701 25.9383 80.4921 27.255 80.719 28.1547C81.2636 30.1736 81.5586 33.2458 81.2409 33.4433C81.1048 33.5311 80.9459 32.8947 80.8551 31.7536C80.5601 28.5936 79.6978 25.9603 78.3362 24.2267C78.0412 23.8536 77.8824 23.4806 77.9504 23.3928C78.2001 23.1514 78.8582 23.8975 79.5843 25.2361ZM78.1093 26.5528C79.2439 29.9542 79.8793 33.1361 79.4255 33.1361C79.3347 33.1361 79.0624 32.2145 78.8582 31.0953C78.6312 29.9981 78.0412 27.9133 77.5647 26.465C77.0654 25.0386 76.6569 23.7658 76.6569 23.6122C76.6796 22.9758 77.4285 24.4681 78.1093 26.5528ZM80.9232 23.9194C81.1502 24.2925 81.1502 24.3583 80.8551 24.3583C80.6736 24.3583 80.424 24.1608 80.2878 23.9194C80.1063 23.5903 80.1063 23.4806 80.3332 23.4806C80.4921 23.4806 80.7644 23.6781 80.9232 23.9194ZM75.8627 24.8411C75.9535 25.4775 76.43 27.5183 76.9066 29.3836C77.7235 32.4997 77.837 33.4872 77.3377 32.7192C77.0881 32.3022 75.5677 26.2456 75.3861 24.8411C75.2954 24.1169 75.3181 23.7 75.4769 23.7C75.5904 23.7 75.7719 24.2267 75.8627 24.8411ZM81.8309 25.2581C82.2167 25.8506 81.9444 26.1358 81.5132 25.5872C81.3317 25.3458 81.1955 25.0825 81.1955 24.9728C81.1955 24.6436 81.5359 24.7972 81.8309 25.2581ZM82.5571 27.0356C82.5571 27.255 82.4663 27.4306 82.3529 27.4306C82.1033 27.4306 81.8536 26.5528 82.0352 26.2675C82.194 26.0042 82.5571 26.5308 82.5571 27.0356ZM82.9656 28.6595C83.0564 29.3836 82.716 29.1861 82.4437 28.3303C82.3302 27.9572 82.3529 27.8475 82.5798 27.9133C82.7614 27.9792 82.9202 28.3083 82.9656 28.6595ZM83.1925 30.1956C83.0791 30.81 82.5571 30.8319 82.5571 30.2175C82.5571 29.9322 82.6252 29.625 82.716 29.5592C82.9429 29.3178 83.2833 29.7567 83.1925 30.1956ZM77.247 33.9919C77.1789 34.0797 76.1577 34.2333 75.0004 34.3211C73.8203 34.4089 71.9141 34.6722 70.7341 34.8917C68.7144 35.2867 68.0336 35.3086 68.6917 34.9136C69.781 34.2553 77.6101 33.4214 77.247 33.9919ZM78.0185 35.3306C78.0185 35.4403 77.9504 35.55 77.837 35.55C77.1789 35.55 71.6645 36.2522 70.1894 36.5375C68.079 36.9106 67.7386 36.9325 67.8974 36.6692C68.079 36.3839 69.8944 36.0108 73.4799 35.55C77.1108 35.0892 78.0185 35.0453 78.0185 35.3306ZM78.7674 36.8667C78.6766 36.9544 77.4058 37.1519 75.9762 37.2836C74.5465 37.4372 72.0503 37.7883 70.4164 38.0736C67.6251 38.5783 66.8763 38.6003 67.5571 38.2053C68.1925 37.8103 78.3362 36.3619 78.7674 36.6033C78.8809 36.6472 78.8809 36.7789 78.7674 36.8667ZM76.7704 38.8636C76.5889 39.1269 75.5223 39.1269 75.5223 38.8636C75.5223 38.6442 76.4073 38.4247 76.725 38.5783C76.8158 38.6222 76.8385 38.7539 76.7704 38.8636ZM75.0684 39.0611C75.0684 39.1708 74.7507 39.2806 74.365 39.2806C73.9792 39.2806 73.7295 39.1928 73.8203 39.0611C73.8884 38.9294 74.2061 38.8417 74.5238 38.8417C74.8188 38.8417 75.0684 38.9294 75.0684 39.0611ZM73.3665 39.2806C73.2984 39.3903 72.9807 39.5 72.663 39.5C72.368 39.5 72.1183 39.3903 72.1183 39.2806C72.1183 39.1489 72.436 39.0611 72.8218 39.0611C73.2076 39.0611 73.4572 39.1489 73.3665 39.2806ZM71.6645 39.4781C71.6645 39.7194 70.5525 39.9389 70.4164 39.7194C70.371 39.6317 70.371 39.5 70.4618 39.4122C70.6887 39.2147 71.6645 39.2586 71.6645 39.4781ZM69.849 39.6975C69.849 39.895 68.9186 40.2022 68.7598 40.0486C68.7144 40.0047 68.7371 39.8731 68.8279 39.7414C69.0094 39.4561 69.849 39.4122 69.849 39.6975ZM68.2605 39.9389C68.2605 40.2022 67.1713 40.4875 66.9443 40.29C66.7628 40.0925 67.3528 39.7194 67.8748 39.7194C68.079 39.7194 68.2605 39.8072 68.2605 39.9389ZM64.9927 41.6067C64.9247 41.8042 64.8566 42.0456 64.8566 42.1553C64.8566 42.265 64.7658 42.3528 64.6297 42.3528C64.38 42.3528 64.312 41.6286 64.5616 41.4092C64.8339 41.1239 65.1289 41.2556 64.9927 41.6067ZM63.1773 42.1772C62.7915 43.9767 61.9292 49.1775 61.793 50.4722C61.6115 52.4033 61.4526 52.9958 61.2484 52.7544C60.9988 52.5131 61.2938 50.0553 62.0427 45.6444C62.7007 41.7164 62.7688 41.475 63.0865 41.475C63.2454 41.475 63.2681 41.7383 63.1773 42.1772ZM61.4526 42.3528C61.4526 42.4625 61.203 43.9108 60.908 45.5786C60.613 47.2464 60.2953 49.375 60.2045 50.2967C60.023 52.0522 59.6372 52.6667 59.6372 51.1744C59.6372 49.4189 60.9307 42.1333 61.2484 42.1333C61.3619 42.1333 61.4526 42.2211 61.4526 42.3528ZM59.7507 43.2744C59.2287 45.4908 58.911 47.3561 58.8202 48.9361C58.6614 51.1744 58.5706 51.6133 58.2756 51.1306C57.9806 50.6258 58.7295 44.7447 59.2968 43.055C59.4783 42.5722 59.8868 42.7697 59.7507 43.2744ZM64.675 43.5597C64.6297 43.8669 64.4935 44.1083 64.38 44.1083C64.1531 44.1083 64.1077 43.1647 64.312 42.9453C64.607 42.6819 64.7885 43.0111 64.675 43.5597ZM64.4027 45.0739C64.4027 45.3811 64.312 45.6883 64.1758 45.7542C64.0396 45.8419 63.9489 45.6006 63.9489 45.2275C63.9489 44.8544 64.0623 44.5472 64.1758 44.5472C64.312 44.5472 64.4027 44.7886 64.4027 45.0739ZM64.1758 46.7417C64.1758 47.0928 64.085 47.4 63.9489 47.4C63.6992 47.4 63.6312 46.4564 63.8808 46.2369C64.1304 45.9736 64.1758 46.0614 64.1758 46.7417ZM63.9489 48.3436C63.9489 48.9142 63.7446 49.1994 63.495 49.0458C63.2681 48.9142 63.495 47.8389 63.7446 47.8389C63.8581 47.8389 63.9489 48.0583 63.9489 48.3436ZM63.7219 49.8578C63.7219 50.2308 63.3135 50.8233 63.1773 50.6697C62.9958 50.5161 63.2908 49.5944 63.5177 49.5944C63.6312 49.5944 63.7219 49.7261 63.7219 49.8578ZM54.259 50.7794C56.0971 50.7794 57.5948 50.8453 57.5948 50.9331C57.5948 51.1306 55.734 51.35 53.8505 51.35C51.3996 51.35 48.5403 50.7356 48.8353 50.2747C48.9034 50.165 49.4027 50.2308 49.9246 50.4283C50.6735 50.6917 51.7173 50.7794 54.259 50.7794ZM50.7188 52.14C51.8762 52.4033 52.9655 52.4692 55.1667 52.3814C58.0487 52.2717 59.0018 52.4692 56.9821 52.7764C54.3043 53.1494 49.6069 52.7106 48.8807 51.9864C48.563 51.7011 48.9261 51.7231 50.7188 52.14ZM50.6508 53.6761C52.1939 54.0711 55.2121 54.1808 57.209 53.9175C59.0018 53.6542 58.8883 54.0931 57.0729 54.4003C56.2786 54.5319 55.0532 54.6417 54.3724 54.6417C52.4208 54.6417 48.9715 53.9394 48.9715 53.5444C48.9715 53.2592 49.0169 53.2592 50.6508 53.6761ZM50.0154 55.1903C50.3785 55.4536 50.4011 55.4975 50.0608 55.5194C49.5388 55.5194 48.9715 55.2781 48.9715 55.0586C48.9715 54.7514 49.5161 54.8172 50.0154 55.1903ZM51.9216 55.5194C51.9216 55.6292 51.672 55.7389 51.3769 55.7389C51.0592 55.7389 50.7415 55.6292 50.6735 55.5194C50.5827 55.3878 50.8323 55.3 51.2181 55.3C51.6039 55.3 51.9216 55.3878 51.9216 55.5194ZM53.737 55.7389C53.737 55.8486 53.442 55.9583 53.0562 55.9583C52.6931 55.9583 52.3754 55.8486 52.3754 55.7389C52.3754 55.6072 52.6931 55.5194 53.0562 55.5194C53.442 55.5194 53.737 55.6072 53.737 55.7389ZM55.439 55.7389C55.3709 55.8486 55.0532 55.9583 54.7355 55.9583C54.4405 55.9583 54.1909 55.8486 54.1909 55.7389C54.1909 55.6072 54.5086 55.5194 54.8944 55.5194C55.2801 55.5194 55.5298 55.6072 55.439 55.7389ZM8.57795 66.0089C9.09989 65.7017 9.7353 65.9431 9.87145 66.5136C9.98492 66.8647 10.1211 66.9306 10.5522 66.8208C11.5507 66.5794 11.4373 67.6547 10.3253 68.8397C10.0757 69.1031 9.59914 69.3883 9.23605 69.4542C8.71411 69.5639 8.57795 69.7175 8.57795 70.2003C8.57795 70.7269 8.66873 70.7928 9.21336 70.7708C9.62183 70.7269 9.66722 70.7489 9.30413 70.8147C9.03181 70.8586 8.69142 71.1219 8.55526 71.3633C8.30564 71.8022 8.35102 71.8242 9.12259 71.6925C9.57645 71.6267 9.93953 71.6486 9.93953 71.7803C9.93953 71.89 9.7126 71.9778 9.41759 71.9778C8.89565 71.9778 8.35102 72.3508 8.35102 72.7019C8.35102 72.8117 8.7368 72.8556 9.21336 72.7678L10.053 72.6581L9.32682 72.9653C8.82758 73.1847 8.57795 73.4481 8.57795 73.7333C8.57795 74.1064 8.64603 74.1503 9.00912 73.9528C9.25874 73.8431 9.59914 73.7333 9.75799 73.7553C9.91684 73.7553 9.7126 73.9089 9.28144 74.0844C8.60065 74.3697 8.53257 74.4794 8.66873 75.0719C8.7368 75.4889 8.71411 75.6864 8.57795 75.5986C8.44179 75.5328 8.35102 75.2256 8.35102 74.9403C8.35102 74.5233 8.19217 74.3697 7.73831 74.26C6.64905 74.0406 6.62636 73.9967 7.51138 73.9747C8.26025 73.9528 8.35102 73.9089 8.14679 73.5797C8.03332 73.3603 7.60215 73.075 7.17099 72.9214L6.42212 72.6361L7.28445 72.7678C8.05601 72.8556 8.14679 72.8336 8.07871 72.4825C8.03332 72.2631 7.64754 71.9558 7.21637 71.8022L6.42212 71.5169L7.28445 71.6267C8.01063 71.7144 8.12409 71.6706 8.12409 71.2975C8.12409 70.9903 7.91986 70.8367 7.4433 70.7269C7.08021 70.6611 6.76251 70.5075 6.76251 70.3978C6.76251 70.2661 6.89867 70.2222 7.05752 70.2881C8.21486 70.705 8.35102 70.705 8.35102 70.2003C8.35102 69.915 8.03332 69.3664 7.64754 68.9933C6.85329 68.2033 6.67174 67.0183 7.21637 66.0747C7.466 65.6139 7.51138 65.5919 7.82908 65.8992C8.1014 66.1625 8.28294 66.1844 8.57795 66.0089ZM14.2058 66.4258C14.8866 68.1375 15.0228 68.9714 15.0228 70.7708C15.0228 72.7897 14.4781 75.0281 13.9108 75.4889C13.6839 75.6864 13.5023 75.445 13.0939 74.4575C12.2088 72.2631 12.4358 67.8303 13.5023 65.9869C13.6839 65.6797 13.9789 65.8553 14.2058 66.4258ZM19.4706 66.1625C19.6748 66.4039 19.8564 66.4258 20.1514 66.2722C20.8776 65.8992 21.0591 66.0308 21.0591 66.9306C21.0591 68.0936 20.6733 68.8397 19.7656 69.3664C19.289 69.6517 19.0167 69.9808 19.0167 70.31C19.0167 70.7269 19.1302 70.7928 19.8791 70.7269C20.7641 70.6611 20.6733 70.7489 19.6521 70.9683C18.7444 71.1658 18.8352 71.7583 19.7656 71.7803C20.5145 71.8022 20.4691 71.8461 19.4252 72.0656C18.5175 72.2631 18.6083 72.8556 19.5387 72.8775C20.2875 72.8994 20.2422 72.9433 19.1983 73.1628C18.2906 73.3603 18.3813 73.9528 19.3117 73.9747L20.0379 74.0186L19.289 74.1503C18.8125 74.2381 18.404 74.4794 18.1998 74.8306L17.8594 75.3792L17.9955 74.7647C18.0863 74.26 17.9955 74.1064 17.3828 73.7114C16.6794 73.2725 16.9744 73.2286 17.9502 73.6236C18.2225 73.7333 18.3359 73.6675 18.3359 73.4042C18.3359 73.2067 18.0409 72.9214 17.6552 72.7897C17.2921 72.6581 16.9744 72.4606 16.9744 72.3728C16.9744 72.2631 17.3374 72.3289 17.7686 72.5044C18.4948 72.8117 18.5629 72.8117 18.5629 72.4386C18.5629 72.2411 18.2225 71.89 17.8367 71.6925C17.1105 71.3194 17.5417 71.2975 18.4267 71.6486C18.7444 71.7803 18.8125 71.7364 18.7444 71.4072C18.699 71.1658 18.3359 70.8806 17.8821 70.705L17.0878 70.4197L17.9502 70.5294C18.7217 70.6172 18.7898 70.5953 18.7898 70.1125C18.7898 69.7394 18.5856 69.4761 18.109 69.2347C17.3374 68.8617 16.7474 67.8961 16.7474 67.0183C16.7474 66.5356 16.8382 66.4478 17.2921 66.5356C17.6325 66.6014 17.9048 66.4917 18.0863 66.2283C18.404 65.7456 19.0848 65.7017 19.4706 66.1625Z" fill="#301001"/>
<path d="M7.35252 66.3819C7.0802 67.0622 7.21636 68.2033 7.62484 68.6861C8.03331 69.1689 8.03331 69.1469 8.01062 67.8303C7.98792 66.4697 7.64753 65.6797 7.35252 66.3819Z" fill="#222325"/>
<path d="M8.64602 66.2942C8.48716 66.4478 8.35101 67.0622 8.3737 67.6767L8.39639 68.7958L8.71409 67.6986C9.09988 66.3819 9.05449 65.8772 8.64602 66.2942Z" fill="#222325"/>
<path d="M9.05451 67.4572C8.91835 68.0058 8.80489 68.5106 8.80489 68.6203C8.82758 68.9494 9.68991 67.2597 9.71261 66.8647C9.71261 66.1186 9.30413 66.5136 9.05451 67.4572Z" fill="#222325"/>
<path d="M9.98491 67.4133C9.87144 67.5669 9.59913 68.0278 9.39489 68.4008C9.09988 68.9714 9.07719 69.125 9.32681 69.125C9.66721 69.125 10.4388 68.3789 10.8246 67.6328C11.0515 67.2158 11.0288 67.15 10.6657 67.15C10.4161 67.15 10.1211 67.2817 9.98491 67.4133Z" fill="#222325"/>
<path d="M13.3208 67.9619C13.1392 68.5544 13.0031 69.8053 13.0031 70.7708C13.0031 72.4825 13.4569 74.6111 13.7973 74.6111C14.115 74.6111 14.5689 72.3508 14.5689 70.7708C14.5689 69.1908 14.115 66.9306 13.7973 66.9306C13.7066 66.9306 13.4796 67.3914 13.3208 67.9619Z" fill="#222325"/>
<path d="M18.2225 66.5356C18.1317 66.755 18.2225 67.3475 18.404 67.8522L18.7444 68.7958L18.7671 67.8083C18.7898 66.6672 18.4494 65.9211 18.2225 66.5356Z" fill="#222325"/>
<path d="M19.0167 67.3695C19.0167 68.0717 19.1075 68.4448 19.2437 68.357C19.3798 68.2911 19.4706 67.8303 19.4706 67.3695C19.4706 66.9086 19.3798 66.4478 19.2437 66.382C19.1075 66.2942 19.0167 66.6673 19.0167 67.3695Z" fill="#222325"/>
<path d="M20.0833 66.755C19.6975 67.3475 19.4252 69.125 19.7202 69.125C20.0379 69.125 20.6279 68.1156 20.7641 67.3036C20.9002 66.3819 20.5145 66.0747 20.0833 66.755Z" fill="#222325"/>
<path d="M17.0651 67.4133C17.2013 68.0717 17.9955 69.125 18.3359 69.125C18.5629 69.125 17.8594 67.0622 17.5644 66.8867C17.0651 66.5575 16.929 66.7331 17.0651 67.4133Z" fill="#222325"/>
<path d="M55.9382 19.9036C55.8475 19.9694 55.7794 20.2108 55.7794 20.4083C55.7794 21.2861 54.1001 23.9633 52.7385 25.3239C51.2181 26.7942 48.7899 28.3303 47.2241 28.7692C46.271 29.0325 46.0441 29.2519 46.4526 29.5153C46.793 29.7128 49.0396 28.8131 50.5827 27.8256C53.3058 26.1358 55.5071 23.4367 56.2105 20.9569C56.4375 20.145 56.2786 19.5525 55.9382 19.9036Z" fill="#222325"/>
<path d="M56.8233 20.6717C55.6205 24.6875 52.2166 28.1767 48.0184 29.6689C47.1107 29.9761 46.7476 30.1956 46.9064 30.3492C47.0653 30.5028 47.4511 30.4808 48.1091 30.3053C50.9685 29.4933 55.0759 26.1139 56.3921 23.4806C57.1637 21.9006 57.5267 20.4083 57.141 20.4083C57.0048 20.4083 56.8686 20.54 56.8233 20.6717Z" fill="#222325"/>
<path d="M57.4359 22.2297C56.3694 25.6092 52.4662 29.2958 48.5176 30.6564C47.9049 30.8758 47.3829 31.1611 47.3829 31.3147C47.3829 31.7097 47.6099 31.6658 49.0849 31.1392C53.215 29.647 57.6629 25.0825 58.1848 21.7689C58.4117 20.3425 57.9352 20.6278 57.4359 22.2297Z" fill="#222325"/>
<path d="M58.5252 22.4272C58.3891 23.0636 57.9579 24.1169 57.5948 24.7533C56.029 27.3866 52.1031 30.5905 49.1984 31.6219C48.4495 31.8853 47.8368 32.1925 47.8368 32.3241C47.8368 32.6972 49.3573 32.3241 50.855 31.6C55.0078 29.5591 58.7748 25.3019 59.1152 22.2736C59.2968 20.913 58.8656 21.0228 58.5252 22.4272Z" fill="#222325"/>
<path d="M59.6372 22.3175C59.6145 24.4681 56.8686 28.1767 53.6008 30.5247C52.2393 31.4903 49.3346 32.9167 48.6992 32.9167C48.4722 32.9167 48.2907 33.0703 48.2907 33.2458C48.2907 33.6847 48.7218 33.6628 50.1969 33.1142C54.0093 31.7536 58.5933 27.5183 59.7733 24.3144C60.1364 23.2831 60.2045 21.725 59.8641 21.725C59.7506 21.725 59.6372 21.9883 59.6372 22.3175Z" fill="#222325"/>
<path d="M60.6584 22.7564C60.1591 25.7628 58.0941 28.6375 54.5993 31.1611C52.6251 32.6095 51.2181 33.3775 49.7204 33.7945C49.1757 33.9481 48.7446 34.2114 48.7446 34.387C48.7446 34.8258 49.6977 34.5625 52.035 33.4653C56.619 31.2928 60.6811 26.7722 61.1349 23.3489C61.2938 22.0103 60.8626 21.4617 60.6584 22.7564Z" fill="#222325"/>
<path d="M61.6795 22.888C61.6795 26.9478 55.2801 33.4872 49.9246 34.8697C48.9715 35.133 48.8126 35.55 49.6523 35.55C51.4223 35.55 55.3482 33.18 58.1621 30.415C60.6811 27.9572 61.9065 25.8944 62.088 23.8097C62.1561 22.9319 62.1107 22.3833 61.9292 22.2955C61.7703 22.1858 61.6795 22.3833 61.6795 22.888Z" fill="#222325"/>
<path d="M62.5419 24.0073C62.3604 26.1578 61.1576 28.1548 58.5026 30.7442C57.3225 31.9073 55.5978 33.3336 54.6901 33.9042C52.9201 35.0014 50.6508 35.9889 49.8792 35.9889C49.6069 35.9889 49.4254 36.1425 49.4254 36.34C49.4254 36.8667 50.7189 36.6034 52.7839 35.6598C54.9398 34.6723 56.3467 33.6848 58.5933 31.6C61.9519 28.4839 63.2681 26.0261 63.0865 23.1953C62.9958 22.0761 62.6554 22.6028 62.5419 24.0073Z" fill="#222325"/>
<path d="M63.6085 23.5025C64.1077 26.0919 61.0896 30.6344 56.6871 33.9042C54.8944 35.2428 51.8762 36.7569 50.6054 36.9764C49.97 37.0642 49.6523 37.2397 49.6523 37.4592C49.6523 37.7225 49.8111 37.7664 50.4919 37.6347C52.035 37.3494 53.6689 36.6472 55.7567 35.3086C60.7038 32.1486 64.4027 27.2769 64.1077 24.2925C64.0623 23.7 63.8808 23.1075 63.7446 22.9758C63.5177 22.7783 63.495 22.888 63.6085 23.5025Z" fill="#222325"/>
<path d="M64.5842 24.2925C64.6523 25.2361 64.5389 25.8945 64.1758 26.8161C62.4057 31.3806 55.7567 36.9984 50.9684 37.9859C49.4253 38.315 49.4934 38.8417 51.0365 38.6003C53.6462 38.2053 57.3679 35.9889 60.4314 33.0264C64.2211 29.3836 65.6054 26.5309 64.97 23.7439C64.7204 22.6028 64.4708 22.932 64.5842 24.2925Z" fill="#222325"/>
<path d="M85.4391 24.6217C85.8476 29.5372 80.8778 37.5908 72.9126 44.9422C65.0154 52.2058 56.2333 57.3408 51.2635 57.5383C50.5146 57.5822 49.8792 57.67 49.8792 57.7358C49.8792 57.8017 50.0834 58.0431 50.3331 58.2625C50.6962 58.5697 51.1046 58.6575 52.2166 58.6136C54.3497 58.5478 56.0744 58.0431 59.0699 56.6167C64.2439 54.1808 69.4406 50.4064 74.9777 45.0958C80.9232 39.3903 84.6676 34.2772 86.1653 29.8444C86.9823 27.4744 86.8234 24.5778 85.8476 23.7L85.3257 23.2392L85.4391 24.6217Z" fill="#222325"/>
<path d="M87.1184 25.7189C87.3907 26.8161 87.2092 28.1547 86.5965 30.0639C85.1214 34.5186 81.4225 39.5658 75.2046 45.5347C69.6675 50.8672 64.5389 54.5758 59.2968 57.0555C56.3013 58.4819 54.3951 59.0305 52.4435 59.0525L51.1954 59.0744L51.7627 59.645C52.2847 60.1497 52.5116 60.1936 53.8732 60.1497C59.3649 59.9522 68.079 54.6416 76.8839 46.1053C86.3922 36.9105 90.3862 29.0983 87.5723 25.3019C87.0276 24.5778 86.8915 24.6875 87.1184 25.7189Z" fill="#222325"/>
<path d="M88.9112 28.3303C88.9112 29.1203 88.7523 30.3053 88.5481 30.9636C87.9354 33.0045 85.7568 36.735 83.5102 39.6536C80.9005 43.0111 74.3423 49.4628 70.6433 52.3156C64.0396 57.4067 57.7537 60.5667 54.2817 60.5667C53.6009 60.5667 53.0562 60.6325 53.0562 60.7203C53.0789 61.1811 58.616 64.5606 62.0427 66.2283C66.2182 68.2472 69.1683 68.9933 73.0261 68.9933C76.2712 68.9933 78.0639 68.5764 81.0821 67.1281C83.8279 65.8333 86.4149 63.8364 89.5466 60.6764C93.4951 56.6825 95.6964 53.4567 96.5133 50.4722C97.3756 47.3561 97.0806 43.1208 95.7191 39.0611C94.8567 36.4497 92.5193 31.8633 90.8401 29.4056C88.9339 26.6406 88.9112 26.6186 88.9112 28.3303Z" fill="#301001"/>
<path d="M23.6915 68.3789C23.5099 70.1564 22.9426 72.5044 22.4888 73.3383C21.9895 74.3258 22.5568 74.0406 23.3057 72.9214C24.2134 71.5828 24.5311 70.4197 24.395 68.8617C24.2134 66.8647 23.873 66.6233 23.6915 68.3789Z" fill="#222325"/>
<path d="M3.85782 68.0058C3.49473 69.125 3.51742 70.1563 3.9032 71.4072C4.22091 72.4386 5.31017 74.1722 5.62787 74.1722C5.69595 74.1722 5.5371 73.5138 5.26478 72.68C4.96978 71.868 4.62938 70.3319 4.49322 69.2347C4.35706 68.1594 4.22091 67.2377 4.17552 67.2158C4.13013 67.1719 3.99398 67.523 3.85782 68.0058Z" fill="#222325"/>
<path d="M116.248 30.92C114.904 30.92 113.656 30.72 112.504 30.32C111.352 29.92 110.312 29.392 109.384 28.736C108.472 28.064 107.672 27.344 106.984 26.576L109.384 22.76C109.592 23.304 109.936 23.824 110.416 24.32C110.912 24.816 111.488 25.256 112.144 25.64C112.8 26.024 113.488 26.328 114.208 26.552C114.944 26.776 115.664 26.888 116.368 26.888C117.424 26.888 118.264 26.72 118.888 26.384C119.512 26.032 119.824 25.568 119.824 24.992C119.824 24.544 119.68 24.176 119.392 23.888C119.12 23.584 118.8 23.344 118.432 23.168C118.08 22.976 117.776 22.808 117.52 22.664C117.328 22.568 116.976 22.424 116.464 22.232C115.968 22.024 115.408 21.8 114.784 21.56C114.16 21.32 113.568 21.096 113.008 20.888C112.448 20.664 112.008 20.48 111.688 20.336C109.304 19.264 108.112 17.608 108.112 15.368C108.112 14.648 108.248 13.944 108.52 13.256C108.808 12.552 109.24 11.912 109.816 11.336C110.392 10.76 111.128 10.304 112.024 9.968C112.92 9.632 113.992 9.464 115.24 9.464C116.6 9.464 117.808 9.616 118.864 9.92C119.92 10.208 120.848 10.576 121.648 11.024C122.464 11.472 123.16 11.944 123.736 12.44L121.528 16.136C119.752 14.376 117.744 13.496 115.504 13.496C114.56 13.496 113.84 13.6 113.344 13.808C112.864 14 112.536 14.224 112.36 14.48C112.2 14.72 112.12 14.92 112.12 15.08C112.12 15.352 112.216 15.624 112.408 15.896C112.616 16.168 113.072 16.456 113.776 16.76C114.064 16.888 114.448 17.048 114.928 17.24C115.424 17.416 115.968 17.616 116.56 17.84C117.168 18.064 117.76 18.304 118.336 18.56C118.928 18.8 119.464 19.048 119.944 19.304C120.52 19.624 121.112 20.016 121.72 20.48C122.328 20.944 122.84 21.52 123.256 22.208C123.688 22.88 123.904 23.704 123.904 24.68C123.904 25.272 123.792 25.928 123.568 26.648C123.344 27.352 122.952 28.032 122.392 28.688C121.832 29.344 121.056 29.88 120.064 30.296C119.072 30.712 117.8 30.92 116.248 30.92ZM126.138 30.656C126.138 29.68 126.138 28.432 126.138 26.912C126.154 25.376 126.17 23.672 126.186 21.8C126.218 19.928 126.258 17.96 126.306 15.896C126.37 13.832 126.442 11.768 126.521 9.704L130.602 9.68C130.538 10.592 130.474 11.704 130.41 13.016C130.346 14.328 130.29 15.736 130.242 17.24C131.346 16.216 132.61 15.704 134.034 15.704C135.01 15.704 135.818 15.88 136.458 16.232C137.114 16.584 137.642 17.048 138.042 17.624C138.442 18.184 138.746 18.8 138.954 19.472C139.162 20.144 139.306 20.808 139.386 21.464C139.466 22.104 139.506 22.672 139.506 23.168C139.506 24.224 139.498 25.272 139.482 26.312C139.466 27.352 139.45 28.264 139.434 29.048C139.434 29.832 139.434 30.384 139.434 30.704L135.234 30.728C135.298 30.104 135.338 29.384 135.354 28.568C135.386 27.752 135.402 26.912 135.402 26.048C135.418 25.168 135.426 24.336 135.426 23.552C135.426 20.96 134.818 19.664 133.602 19.664C133.234 19.664 132.826 19.76 132.378 19.952C131.93 20.144 131.498 20.448 131.082 20.864C130.682 21.28 130.362 21.832 130.122 22.52C130.106 23.576 130.098 24.6 130.098 25.592C130.098 26.504 130.106 27.36 130.122 28.16C130.154 28.944 130.178 29.736 130.194 30.536L126.138 30.656ZM147.887 30.896C146.687 30.896 145.599 30.584 144.623 29.96C143.647 29.352 142.871 28.528 142.295 27.488C141.735 26.432 141.455 25.256 141.455 23.96C141.455 22.744 141.679 21.648 142.127 20.672C142.575 19.68 143.183 18.832 143.951 18.128C144.735 17.424 145.623 16.888 146.615 16.52C147.607 16.136 148.647 15.944 149.735 15.944C150.647 15.944 151.543 16.072 152.423 16.328C152.487 15.992 152.543 15.656 152.591 15.32L156.695 16.016C156.583 16.32 156.471 16.776 156.359 17.384C156.247 17.992 156.151 18.672 156.071 19.424C156.007 20.176 155.951 20.928 155.903 21.68C155.855 22.432 155.831 23.112 155.831 23.72C155.831 24.216 155.863 24.704 155.927 25.184C156.007 25.648 156.167 26.032 156.407 26.336C156.647 26.624 157.015 26.768 157.511 26.768H157.847L157.247 30.944C156.191 30.944 155.319 30.76 154.631 30.392C153.943 30.04 153.391 29.56 152.975 28.952C152.287 29.72 151.503 30.232 150.623 30.488C149.743 30.76 148.831 30.896 147.887 30.896ZM145.391 24.44C145.471 25.208 145.783 25.824 146.327 26.288C146.887 26.736 147.591 26.96 148.439 26.96C149.255 26.96 149.935 26.744 150.479 26.312C151.023 25.864 151.471 25.256 151.823 24.488C151.807 24.232 151.799 23.968 151.799 23.696C151.799 23.136 151.815 22.56 151.847 21.968C151.879 21.376 151.919 20.792 151.967 20.216C151.295 19.96 150.591 19.832 149.855 19.832C148.991 19.832 148.215 20.008 147.527 20.36C146.855 20.696 146.327 21.168 145.943 21.776C145.559 22.384 145.367 23.088 145.367 23.888C145.367 23.984 145.367 24.08 145.367 24.176C145.367 24.272 145.375 24.36 145.391 24.44ZM163.187 35.504L159.587 33.584C160.483 32.592 161.355 31.568 162.203 30.512C163.051 29.472 163.859 28.4 164.627 27.296C163.875 26.288 163.123 25.208 162.371 24.056C161.619 22.888 160.923 21.744 160.283 20.624C159.643 19.504 159.123 18.504 158.723 17.624L162.563 15.944C162.851 16.712 163.219 17.544 163.667 18.44C164.131 19.336 164.635 20.248 165.179 21.176C165.739 22.104 166.315 22.992 166.907 23.84C168.635 21.04 170.059 18.28 171.179 15.56L175.163 17.144C174.443 18.52 173.627 20 172.715 21.584C171.819 23.152 170.851 24.752 169.811 26.384C168.787 28 167.715 29.584 166.595 31.136C165.475 32.704 164.339 34.16 163.187 35.504Z" fill="#222325"/>
<path d="M108.064 65.656C108.048 65.48 108.04 65.288 108.04 65.08C108.04 64.872 108.04 64.632 108.04 64.36C108.04 63.672 108.056 62.856 108.088 61.912C108.12 60.952 108.168 59.936 108.232 58.864C108.296 57.776 108.36 56.688 108.424 55.6C108.488 54.496 108.552 53.44 108.616 52.432C108.696 51.424 108.768 50.52 108.832 49.72C108.48 49.832 108.168 49.936 107.896 50.032L107.272 46C109.08 45.488 110.76 45.104 112.312 44.848C113.88 44.592 115.296 44.464 116.56 44.464C119.136 44.464 121.104 44.952 122.464 45.928C123.824 46.904 124.504 48.32 124.504 50.176C124.504 51.232 124.272 52.12 123.808 52.84C123.344 53.544 122.688 54.128 121.84 54.592C123.92 55.648 124.96 57.368 124.96 59.752C124.96 60.808 124.76 61.696 124.36 62.416C123.976 63.12 123.48 63.688 122.872 64.12C122.264 64.552 121.616 64.872 120.928 65.08C120.256 65.304 119.616 65.448 119.008 65.512C118.416 65.592 117.952 65.632 117.616 65.632C116.784 65.632 115.896 65.552 114.952 65.392C114.008 65.232 113.088 64.992 112.192 64.672C112.192 64.992 112.192 65.296 112.192 65.584L108.064 65.656ZM116.656 48.472C116.08 48.472 115.472 48.504 114.832 48.568C114.208 48.616 113.584 48.696 112.96 48.808C112.864 49.976 112.768 51.336 112.672 52.888C112.88 52.904 113.088 52.912 113.296 52.912C113.52 52.912 113.744 52.912 113.968 52.912C118.192 52.912 120.304 52.048 120.304 50.32C120.304 49.744 119.976 49.296 119.32 48.976C118.68 48.64 117.792 48.472 116.656 48.472ZM114.52 56.704C114.184 56.704 113.84 56.704 113.488 56.704C113.152 56.704 112.808 56.712 112.456 56.728C112.424 57.432 112.392 58.136 112.36 58.84C112.344 59.544 112.32 60.24 112.288 60.928C113.184 61.2 114.064 61.4 114.928 61.528C115.792 61.64 116.536 61.696 117.16 61.696C118.488 61.696 119.44 61.536 120.016 61.216C120.592 60.88 120.88 60.336 120.88 59.584C120.88 58.656 120.328 57.944 119.224 57.448C118.136 56.952 116.568 56.704 114.52 56.704ZM132.472 65.968C131.448 65.968 130.6 65.784 129.928 65.416C129.272 65.064 128.744 64.576 128.344 63.952C127.96 63.328 127.672 62.632 127.48 61.864C127.304 61.08 127.184 60.272 127.12 59.44C127.072 58.592 127.048 57.776 127.048 56.992C127.048 56.096 127.072 55.184 127.12 54.256C127.184 53.328 127.248 52.312 127.312 51.208L131.704 50.944C131.656 51.28 131.584 51.784 131.488 52.456C131.392 53.128 131.304 53.896 131.224 54.76C131.144 55.624 131.104 56.528 131.104 57.472C131.104 59.024 131.24 60.176 131.512 60.928C131.784 61.664 132.192 62.032 132.736 62.032C133.824 62.032 134.624 61.24 135.136 59.656C135.648 58.072 135.904 55.568 135.904 52.144V51.04L137.944 50.992L140.416 50.944C140.192 52.448 140.024 53.832 139.912 55.096C139.8 56.36 139.728 57.424 139.696 58.288C139.664 59.136 139.648 59.704 139.648 59.992C139.648 60.728 139.712 61.256 139.84 61.576C139.968 61.88 140.192 62.032 140.512 62.032C140.672 62.032 140.848 62 141.04 61.936C141.232 61.872 141.456 61.76 141.712 61.6L141.544 65.728C140.936 65.824 140.408 65.872 139.96 65.872C139.192 65.872 138.56 65.728 138.064 65.44C137.584 65.152 137.2 64.768 136.912 64.288C136.416 64.816 135.8 65.224 135.064 65.512C134.344 65.816 133.48 65.968 132.472 65.968ZM143.883 65.728C143.835 64.32 143.795 63.016 143.763 61.816C143.747 60.616 143.739 59.432 143.739 58.264C143.739 57.096 143.747 55.928 143.763 54.76C143.795 53.576 143.843 52.312 143.907 50.968H147.963C147.899 51.688 147.843 52.416 147.795 53.152C148.339 52.464 148.987 51.896 149.739 51.448C150.491 50.984 151.379 50.752 152.403 50.752C153.411 50.752 154.235 50.92 154.875 51.256C155.531 51.592 156.043 52.056 156.411 52.648C156.795 53.24 157.067 53.92 157.227 54.688C157.403 55.44 157.515 56.256 157.563 57.136C157.611 58 157.635 58.872 157.635 59.752C157.635 60.712 157.619 61.632 157.587 62.512C157.555 63.392 157.523 64.128 157.491 64.72C157.459 65.312 157.435 65.664 157.419 65.776H153.387C153.419 65.12 153.451 64.424 153.483 63.688C153.515 62.936 153.547 62.2 153.579 61.48C153.611 60.744 153.627 60.08 153.627 59.488C153.627 56.08 153.075 54.376 151.971 54.376C151.059 54.376 150.227 54.776 149.475 55.576C148.739 56.36 148.123 57.352 147.627 58.552C147.627 58.712 147.627 58.872 147.627 59.032C147.627 59.8 147.627 60.6 147.627 61.432C147.643 62.248 147.659 63.032 147.675 63.784C147.707 64.52 147.731 65.16 147.747 65.704L143.883 65.728ZM166.004 65.896C164.804 65.896 163.716 65.584 162.74 64.96C161.764 64.352 160.988 63.528 160.412 62.488C159.852 61.432 159.572 60.256 159.572 58.96C159.572 57.744 159.796 56.648 160.244 55.672C160.692 54.68 161.3 53.832 162.068 53.128C162.852 52.424 163.74 51.888 164.732 51.52C165.724 51.136 166.764 50.944 167.852 50.944C168.764 50.944 169.66 51.072 170.54 51.328C170.604 50.992 170.66 50.656 170.708 50.32L174.812 51.016C174.7 51.32 174.588 51.776 174.476 52.384C174.364 52.992 174.268 53.672 174.188 54.424C174.124 55.176 174.068 55.928 174.02 56.68C173.972 57.432 173.948 58.112 173.948 58.72C173.948 59.216 173.98 59.704 174.044 60.184C174.124 60.648 174.284 61.032 174.524 61.336C174.764 61.624 175.132 61.768 175.628 61.768H175.964L175.364 65.944C174.308 65.944 173.436 65.76 172.748 65.392C172.06 65.04 171.508 64.56 171.092 63.952C170.404 64.72 169.62 65.232 168.74 65.488C167.86 65.76 166.948 65.896 166.004 65.896ZM163.508 59.44C163.588 60.208 163.9 60.824 164.444 61.288C165.004 61.736 165.708 61.96 166.556 61.96C167.372 61.96 168.052 61.744 168.596 61.312C169.14 60.864 169.588 60.256 169.94 59.488C169.924 59.232 169.916 58.968 169.916 58.696C169.916 58.136 169.932 57.56 169.964 56.968C169.996 56.376 170.036 55.792 170.084 55.216C169.412 54.96 168.708 54.832 167.972 54.832C167.108 54.832 166.332 55.008 165.644 55.36C164.972 55.696 164.444 56.168 164.06 56.776C163.676 57.384 163.484 58.088 163.484 58.888C163.484 58.984 163.484 59.08 163.484 59.176C163.484 59.272 163.492 59.36 163.508 59.44Z" fill="#301001"/>
</svg>
