<svg width="86" height="80" viewBox="0 0 86 80" fill="none" xmlns="http://www.w3.org/2000/svg">
<path d="M35.038 2.24748C32.2468 4.28831 26.5735 10.1914 26.5735 11.0472C26.5735 11.1569 27.4358 11.6836 28.5024 12.2322C35.0834 15.6117 40.7793 20.8344 45.3633 27.6811L46.6795 29.6561L48.0865 29.1514C51.74 27.8786 55.1213 24.5211 56.029 21.2953C56.2559 20.4833 56.2559 20.4614 55.3255 19.8908C54.4405 19.3642 51.1954 17.1258 50.7869 16.7528C50.5373 16.5333 51.0366 14.668 51.6493 13.4611C52.8293 11.2228 55.7113 8.91859 58.5706 7.97498C61.5888 6.96554 65.3104 7.47027 68.4648 9.3136C71.2333 10.9594 73.843 13.7683 74.955 16.3578C75.5904 17.85 75.6811 21.4489 75.0911 22.6997C74.7507 23.4458 74.6373 23.5117 73.1849 23.7969C72.3226 23.9725 70.371 24.1042 68.8279 24.1042H66.0593L66.2182 24.7625C66.899 27.2642 65.4693 30.4022 62.1107 33.8255C58.9791 37.0075 54.4178 39.7725 51.8989 39.97L50.6962 40.0578L50.5827 42.4278C50.4465 45.2586 50.1742 45.873 48.8126 46.5533C47.8368 47.058 47.6553 47.058 44.0471 46.9483C41.982 46.8825 39.2362 46.7728 37.92 46.685C35.6507 46.5533 35.4465 46.5972 33.5629 47.2336C32.4964 47.6066 31.1575 47.9139 30.6129 47.9139C28.162 47.9139 24.3042 49.4719 21.7853 51.5128C19.0167 53.7072 16.7474 57.1744 15.6809 60.7953L15.1362 62.6166H7.94255H0.748871L1.49774 63.9772C1.90621 64.7453 2.587 66.5886 2.99548 68.1028L3.74435 70.8458L3.9032 69.7925C4.08474 68.6294 4.96977 66.7422 5.40094 66.6105C5.60517 66.5666 5.67325 67.0933 5.67325 68.5197C5.67325 70.6922 6.08173 72.6672 6.94406 74.708C7.62485 76.3539 7.62485 76.31 7.01214 76.1564C6.44481 76.0028 8.1014 77.7364 9.84876 79.0969L10.9607 79.9528H14.7731H18.5856L19.6975 79.0969C20.8776 78.1972 23.3965 75.6955 23.3965 75.4322C23.3965 75.3444 23.2149 75.4322 22.988 75.6297C22.6022 75.9589 22.0349 76.1344 22.0349 75.915C22.0349 75.8711 22.2845 75.2786 22.6022 74.5764C23.4646 72.7111 23.8957 70.6703 23.9184 68.3661C23.9411 67.1153 24.0319 66.3691 24.1907 66.413C24.6673 66.5666 25.4615 68.3222 25.6204 69.573L25.7792 70.8458L26.5508 68.1028C26.9593 66.5886 27.6401 64.7453 28.0485 63.9772L28.7974 62.6166H22.693C19.3344 62.6166 16.5886 62.5289 16.5886 62.4411C16.5886 62.3314 16.7701 61.7169 17.0198 61.0586C18.4494 56.9769 21.3541 53.8169 25.575 51.7103L27.2089 50.8983L30.9079 51.403C40.1212 52.6319 46.3164 54.563 49.3573 57.1525C50.2877 57.9425 50.4465 58.0083 51.74 58.0083C53.2832 58.0083 56.7779 57.0428 56.6871 56.6478C56.6644 56.4942 57.0275 56.3186 57.5494 56.2528C59.2287 56.0114 63.4269 53.5317 63.6539 52.6319C63.8127 52.0175 64.1758 51.9078 64.2893 52.4125C64.38 52.8075 67.9201 50.24 71.4376 47.2336C74.5692 44.5564 78.9489 39.9261 78.4497 39.8383C77.8597 39.7286 78.0412 39.3994 78.7674 39.2458C79.5163 39.0922 80.3559 38.1047 82.421 35.0105C83.3287 33.628 83.5102 33.2111 83.3968 32.6844C83.2833 32.1578 83.3287 32.07 83.6237 32.1797C84.0549 32.3333 84.3953 31.7628 85.076 29.7C86.0745 26.7155 86.0065 24.5869 84.8945 23.5775C84.5314 23.2483 83.8279 21.9975 83.2152 20.5711C81.1502 15.7872 78.3362 11.5519 75.3181 8.69915C71.3241 4.88081 67.6251 3.1472 63.495 3.1472C60.1818 3.1472 56.619 4.20054 53.9639 5.97803C53.3966 6.35109 51.7854 7.6897 50.3785 8.94054C48.9488 10.2133 47.2922 11.53 46.6795 11.8372L45.5448 12.4297L43.8656 10.718C42.1636 8.96249 39.327 5.01248 37.92 2.42303C37.4888 1.61109 37.0577 0.952759 36.9669 0.952759C36.8761 0.952759 36.0138 1.54526 35.038 2.24748ZM80.3332 26.1889C80.719 26.8911 81.2409 28.2078 81.4679 29.1075C82.0125 31.1264 82.3075 34.1986 81.9898 34.3961C81.8536 34.4839 81.6948 33.8475 81.604 32.7064C81.309 29.5464 80.4467 26.913 79.0851 25.1794C78.7901 24.8064 78.6312 24.4333 78.6993 24.3455C78.9489 24.1042 79.607 24.8503 80.3332 26.1889ZM78.8582 27.5055C79.9928 30.9069 80.6282 34.0889 80.1744 34.0889C80.0836 34.0889 79.8113 33.1672 79.607 32.048C79.3801 30.9508 78.7901 28.8661 78.3135 27.4178C77.8143 25.9914 77.4058 24.7186 77.4058 24.565C77.4285 23.9286 78.1774 25.4208 78.8582 27.5055ZM81.6721 24.8722C81.899 25.2453 81.899 25.3111 81.604 25.3111C81.4225 25.3111 81.1728 25.1136 81.0367 24.8722C80.8551 24.543 80.8551 24.4333 81.0821 24.4333C81.2409 24.4333 81.5132 24.6308 81.6721 24.8722ZM76.6116 25.7939C76.7023 26.4303 77.1789 28.4711 77.6554 30.3364C78.4724 33.4525 78.5859 34.44 78.0866 33.6719C77.837 33.255 76.3166 27.1983 76.135 25.7939C76.0442 25.0697 76.0669 24.6528 76.2258 24.6528C76.3392 24.6528 76.5208 25.1794 76.6116 25.7939ZM82.5798 26.2108C82.9656 26.8033 82.6933 27.0886 82.2621 26.54C82.0806 26.2986 81.9444 26.0353 81.9444 25.9255C81.9444 25.5964 82.2848 25.75 82.5798 26.2108ZM83.306 27.9883C83.306 28.2078 83.2152 28.3833 83.1018 28.3833C82.8521 28.3833 82.6025 27.5055 82.7841 27.2203C82.9429 26.9569 83.306 27.4836 83.306 27.9883ZM83.7145 29.6122C83.8052 30.3364 83.4648 30.1389 83.1925 29.283C83.0791 28.91 83.1018 28.8003 83.3287 28.8661C83.5102 28.9319 83.6691 29.2611 83.7145 29.6122ZM83.9414 31.1483C83.8279 31.7628 83.306 31.7847 83.306 31.1703C83.306 30.885 83.3741 30.5778 83.4648 30.5119C83.6918 30.2705 84.0322 30.7094 83.9414 31.1483ZM77.9958 34.9447C77.9278 35.0325 76.9066 35.1861 75.7492 35.2739C74.5692 35.3616 72.663 35.625 71.4829 35.8444C69.4633 36.2394 68.7825 36.2614 69.4406 35.8664C70.5298 35.208 78.3589 34.3741 77.9958 34.9447ZM78.7674 36.2833C78.7674 36.393 78.6993 36.5028 78.5858 36.5028C77.9277 36.5028 72.4134 37.205 70.9383 37.4903C68.8279 37.8633 68.4875 37.8853 68.6463 37.6219C68.8279 37.3366 70.6433 36.9636 74.2288 36.5028C77.8597 36.0419 78.7674 35.998 78.7674 36.2833ZM79.5163 37.8194C79.4255 37.9072 78.1547 38.1047 76.725 38.2364C75.2954 38.39 72.7991 38.7411 71.1652 39.0264C68.374 39.5311 67.6251 39.553 68.3059 39.158C68.9413 38.763 79.0851 37.3147 79.5163 37.5561C79.6297 37.6 79.6297 37.7317 79.5163 37.8194ZM77.5193 39.8164C77.3377 40.0797 76.2712 40.0797 76.2712 39.8164C76.2712 39.5969 77.1562 39.3775 77.4739 39.5311C77.5647 39.575 77.5874 39.7067 77.5193 39.8164ZM75.8173 40.0139C75.8173 40.1236 75.4996 40.2333 75.1138 40.2333C74.728 40.2333 74.4784 40.1455 74.5692 40.0139C74.6373 39.8822 74.955 39.7944 75.2727 39.7944C75.5677 39.7944 75.8173 39.8822 75.8173 40.0139ZM74.1153 40.2333C74.0473 40.343 73.7296 40.4528 73.4118 40.4528C73.1168 40.4528 72.8672 40.343 72.8672 40.2333C72.8672 40.1017 73.1849 40.0139 73.5707 40.0139C73.9565 40.0139 74.2061 40.1017 74.1153 40.2333ZM72.4134 40.4308C72.4134 40.6722 71.3014 40.8917 71.1652 40.6722C71.1199 40.5844 71.1199 40.4528 71.2106 40.365C71.4376 40.1675 72.4134 40.2114 72.4134 40.4308ZM70.5979 40.6503C70.5979 40.8478 69.6675 41.155 69.5087 41.0014C69.4633 40.9575 69.486 40.8258 69.5767 40.6941C69.7583 40.4089 70.5979 40.365 70.5979 40.6503ZM69.0094 40.8917C69.0094 41.155 67.9201 41.4403 67.6932 41.2428C67.5117 41.0453 68.1017 40.6722 68.6236 40.6722C68.8279 40.6722 69.0094 40.76 69.0094 40.8917ZM65.7416 42.5594C65.6735 42.7569 65.6055 42.9983 65.6055 43.108C65.6055 43.2178 65.5147 43.3055 65.3785 43.3055C65.1289 43.3055 65.0608 42.5814 65.3104 42.3619C65.5828 42.0767 65.8778 42.2083 65.7416 42.5594ZM63.9262 43.13C63.5404 44.9294 62.6781 50.1303 62.5419 51.425C62.3604 53.3561 62.2015 53.9486 61.9973 53.7072C61.7477 53.4658 62.0427 51.008 62.7915 46.5972C63.4496 42.6692 63.5177 42.4278 63.8354 42.4278C63.9943 42.4278 64.0169 42.6911 63.9262 43.13ZM62.2015 43.3055C62.2015 43.4153 61.9519 44.8636 61.6569 46.5314C61.3619 48.1992 61.0442 50.3278 60.9534 51.2494C60.7718 53.005 60.3861 53.6194 60.3861 52.1272C60.3861 50.3716 61.6796 43.0861 61.9973 43.0861C62.1107 43.0861 62.2015 43.1739 62.2015 43.3055ZM60.4995 44.2272C59.9776 46.4436 59.6599 48.3089 59.5691 49.8889C59.4103 52.1272 59.3195 52.5661 59.0245 52.0833C58.7295 51.5786 59.4783 45.6975 60.0457 44.0078C60.2272 43.525 60.6357 43.7225 60.4995 44.2272ZM65.4239 44.5125C65.3785 44.8197 65.2424 45.0611 65.1289 45.0611C64.902 45.0611 64.8566 44.1175 65.0608 43.898C65.3558 43.6347 65.5374 43.9639 65.4239 44.5125ZM65.1516 46.0266C65.1516 46.3339 65.0608 46.6411 64.9247 46.7069C64.7885 46.7947 64.6977 46.5533 64.6977 46.1803C64.6977 45.8072 64.8112 45.5 64.9247 45.5C65.0608 45.5 65.1516 45.7414 65.1516 46.0266ZM64.9247 47.6944C64.9247 48.0455 64.8339 48.3528 64.6977 48.3528C64.4481 48.3528 64.38 47.4091 64.6297 47.1897C64.8793 46.9264 64.9247 47.0141 64.9247 47.6944ZM64.6977 49.2964C64.6977 49.8669 64.4935 50.1522 64.2439 49.9986C64.0169 49.8669 64.2439 48.7917 64.4935 48.7917C64.607 48.7917 64.6977 49.0111 64.6977 49.2964ZM64.4708 50.8105C64.4708 51.1836 64.0623 51.7761 63.9262 51.6225C63.7446 51.4689 64.0396 50.5472 64.2666 50.5472C64.38 50.5472 64.4708 50.6789 64.4708 50.8105ZM55.0078 51.7322C56.846 51.7322 58.3437 51.798 58.3437 51.8858C58.3437 52.0833 56.4829 52.3028 54.5993 52.3028C52.1485 52.3028 49.2892 51.6883 49.5842 51.2275C49.6523 51.1178 50.1515 51.1836 50.6735 51.3811C51.4223 51.6444 52.4662 51.7322 55.0078 51.7322ZM51.4677 53.0928C52.6251 53.3561 53.7143 53.4219 55.9155 53.3342C58.7976 53.2244 59.7507 53.4219 57.731 53.7292C55.0532 54.1022 50.3558 53.6633 49.6296 52.9391C49.3119 52.6539 49.675 52.6758 51.4677 53.0928ZM51.3996 54.6289C52.9428 55.0239 55.9609 55.1336 57.9579 54.8703C59.7507 54.6069 59.6372 55.0458 57.8218 55.353C57.0275 55.4847 55.8021 55.5944 55.1213 55.5944C53.1697 55.5944 49.7204 54.8922 49.7204 54.4972C49.7204 54.2119 49.7657 54.2119 51.3996 54.6289ZM50.7642 56.143C51.1273 56.4064 51.15 56.4503 50.8096 56.4722C50.2877 56.4722 49.7204 56.2308 49.7204 56.0114C49.7204 55.7041 50.265 55.77 50.7642 56.143ZM52.6704 56.4722C52.6704 56.5819 52.4208 56.6917 52.1258 56.6917C51.8081 56.6917 51.4904 56.5819 51.4223 56.4722C51.3316 56.3405 51.5812 56.2528 51.967 56.2528C52.3527 56.2528 52.6704 56.3405 52.6704 56.4722ZM54.4859 56.6917C54.4859 56.8014 54.1909 56.9111 53.8051 56.9111C53.442 56.9111 53.1243 56.8014 53.1243 56.6917C53.1243 56.56 53.442 56.4722 53.8051 56.4722C54.1909 56.4722 54.4859 56.56 54.4859 56.6917ZM56.1879 56.6917C56.1198 56.8014 55.8021 56.9111 55.4844 56.9111C55.1894 56.9111 54.9397 56.8014 54.9397 56.6917C54.9397 56.56 55.2574 56.4722 55.6432 56.4722C56.029 56.4722 56.2786 56.56 56.1879 56.6917ZM9.32682 66.9616C9.84876 66.6544 10.4842 66.8958 10.6203 67.4664C10.7338 67.8175 10.8699 67.8833 11.3011 67.7736C12.2996 67.5322 12.1861 68.6075 11.0742 69.7925C10.8246 70.0558 10.348 70.3411 9.98492 70.4069C9.46298 70.5166 9.32682 70.6703 9.32682 71.153C9.32682 71.6797 9.4176 71.7455 9.96223 71.7236C10.3707 71.6797 10.4161 71.7016 10.053 71.7675C9.78068 71.8114 9.44029 72.0747 9.30413 72.3161C9.05451 72.755 9.09989 72.7769 9.87146 72.6453C10.3253 72.5794 10.6884 72.6014 10.6884 72.733C10.6884 72.8428 10.4615 72.9305 10.1665 72.9305C9.64453 72.9305 9.09989 73.3036 9.09989 73.6547C9.09989 73.7644 9.48567 73.8083 9.96223 73.7205L10.8019 73.6108L10.0757 73.918C9.57645 74.1375 9.32682 74.4008 9.32682 74.6861C9.32682 75.0591 9.3949 75.103 9.75799 74.9055C10.0076 74.7958 10.348 74.6861 10.5069 74.708C10.6657 74.708 10.4615 74.8616 10.0303 75.0372C9.34952 75.3225 9.28144 75.4322 9.4176 76.0247C9.48567 76.4416 9.46298 76.6391 9.32682 76.5514C9.19067 76.4855 9.09989 76.1783 9.09989 75.893C9.09989 75.4761 8.94104 75.3225 8.48718 75.2128C7.39792 74.9933 7.37523 74.9494 8.26025 74.9275C9.00912 74.9055 9.09989 74.8616 8.89566 74.5325C8.78219 74.313 8.35102 74.0278 7.91986 73.8741L7.17099 73.5889L8.03332 73.7205C8.80488 73.8083 8.89566 73.7864 8.82758 73.4353C8.78219 73.2158 8.39641 72.9086 7.96524 72.755L7.17099 72.4697L8.03332 72.5794C8.7595 72.6672 8.87296 72.6233 8.87296 72.2503C8.87296 71.943 8.66873 71.7894 8.19217 71.6797C7.82909 71.6139 7.51138 71.4603 7.51138 71.3505C7.51138 71.2189 7.64754 71.175 7.80639 71.2408C8.96374 71.6578 9.09989 71.6578 9.09989 71.153C9.09989 70.8678 8.78219 70.3191 8.39641 69.9461C7.60216 69.1561 7.42061 67.9711 7.96524 67.0275C8.21487 66.5666 8.26025 66.5447 8.57795 66.8519C8.85027 67.1153 9.03181 67.1372 9.32682 66.9616ZM14.9547 67.3786C15.6355 69.0903 15.7716 69.9241 15.7716 71.7236C15.7716 73.7425 15.227 75.9808 14.6597 76.4416C14.4327 76.6391 14.2512 76.3978 13.8427 75.4103C12.9577 73.2158 13.1846 68.783 14.2512 66.9397C14.4327 66.6325 14.7278 66.808 14.9547 67.3786ZM20.2195 67.1153C20.4237 67.3566 20.6052 67.3786 20.9003 67.225C21.6264 66.8519 21.808 66.9836 21.808 67.8833C21.808 69.0464 21.4222 69.7925 20.5145 70.3191C20.0379 70.6044 19.7656 70.9336 19.7656 71.2628C19.7656 71.6797 19.8791 71.7455 20.6279 71.6797C21.513 71.6139 21.4222 71.7016 20.401 71.9211C19.4933 72.1186 19.5841 72.7111 20.5145 72.733C21.2633 72.755 21.218 72.7989 20.1741 73.0183C19.2664 73.2158 19.3571 73.8083 20.2875 73.8303C21.0364 73.8522 20.991 73.8961 19.9471 74.1155C19.0394 74.313 19.1302 74.9055 20.0606 74.9275L20.7868 74.9714L20.0379 75.103C19.5614 75.1908 19.1529 75.4322 18.9487 75.7833L18.6083 76.3319L18.7444 75.7175C18.8352 75.2128 18.7444 75.0591 18.1317 74.6641C17.4282 74.2253 17.7232 74.1814 18.699 74.5764C18.9713 74.6861 19.0848 74.6203 19.0848 74.3569C19.0848 74.1594 18.7898 73.8741 18.404 73.7425C18.0409 73.6108 17.7232 73.4133 17.7232 73.3255C17.7232 73.2158 18.0863 73.2816 18.5175 73.4572C19.2437 73.7644 19.3117 73.7644 19.3117 73.3914C19.3117 73.1939 18.9713 72.8428 18.5856 72.6453C17.8594 72.2722 18.2906 72.2503 19.1756 72.6014C19.4933 72.733 19.5614 72.6891 19.4933 72.36C19.4479 72.1186 19.0848 71.8333 18.631 71.6578L17.8367 71.3725L18.699 71.4822C19.4706 71.57 19.5387 71.548 19.5387 71.0653C19.5387 70.6922 19.3344 70.4289 18.8579 70.1875C18.0863 69.8144 17.4963 68.8489 17.4963 67.9711C17.4963 67.4883 17.5871 67.4005 18.0409 67.4883C18.3813 67.5541 18.6536 67.4444 18.8352 67.1811C19.1529 66.6983 19.8337 66.6544 20.2195 67.1153Z" fill="#683017"/>
</svg>
