<svg width="365" height="132" viewBox="0 0 365 132" fill="none" xmlns="http://www.w3.org/2000/svg">
<path d="M294.17 124.832C299.123 108.778 297.103 81.7136 290.137 70.1838C283.17 58.654 283.164 59.1739 283.153 90.3714C283.129 122.609 288.815 141.401 294.17 124.832Z" fill="#EBDBCC" fill-opacity="0.3"/>
<path d="M268.919 127.205C271.417 123.48 273.712 108.48 273.558 93.4472L273.564 66.0707L268.316 92.8422C261.948 124.967 262.488 137.32 268.919 127.205Z" fill="#EBDBCC" fill-opacity="0.3"/>
<path d="M263.687 98.0432C266.674 84.8092 269.177 72.6308 269.211 69.9767C268.846 62.0082 250.496 102.65 249.903 112.199C249.668 130.247 258.233 120.802 263.687 98.0432Z" fill="#EBDBCC" fill-opacity="0.3"/>
<path d="M244.437 100.583C246.535 96.9516 251.599 86.0404 255.405 77.2036C260.913 63.6845 261.371 60.0314 256.86 59.9727C250.709 59.8927 236.535 77.4808 229.332 95.1596C225.102 105.036 225.492 106.61 232.053 106.695C236.564 106.754 241.936 103.687 244.437 100.583Z" fill="#EBDBCC" fill-opacity="0.3"/>
<path d="M182.631 84.5121C186.619 70.5009 189.86 40.8544 190.158 17.9406C190.686 -22.6792 181.829 -73.3173 174.693 -73.4102C168.033 -73.4968 157.821 -19.9816 157.333 17.5136C156.845 55.0088 165.662 108.772 172.322 108.858C174.225 108.883 179.124 98.0088 182.631 84.5121Z" fill="#EBDBCC" fill-opacity="0.3"/>
<path d="M89.8008 117.252C91.3328 112.071 90.0511 98.0109 87.278 86.0121L82.0776 63.5794L81.407 86.976C80.6891 114.013 85.9504 131.765 89.8008 117.252Z" fill="#EBDBCC" fill-opacity="0.3"/>
<path d="M76.5453 98.7912C76.7602 82.2785 74.9987 73.4818 72.1584 75.5093C69.3249 77.0207 67.3083 87.8327 67.1673 98.6692C67.0263 109.506 68.7609 120.366 71.5542 121.951C74.3408 124.052 76.3305 115.304 76.5453 98.7912Z" fill="#EBDBCC" fill-opacity="0.3"/>
<path d="M54.6387 113.325C60.8692 99.4106 65.6848 57.4855 61.0596 57.4254C56.0785 57.3605 46.5178 81.081 44.1336 100.23C41.7156 121.97 47.6697 129.304 54.6387 113.325Z" fill="#EBDBCC" fill-opacity="0.3"/>
<path d="M113.051 97.956C110.444 82.5935 94.3902 57.859 87.3733 57.7677C82.6953 57.7068 96.5722 105.917 102.6 110.083C112.792 117.88 115.652 113.829 113.051 97.956Z" fill="#EBDBCC" fill-opacity="0.3"/>
<path d="M-11.7244 72.8182C-7.57446 31.0085 4.41168 -24.1369 13.6806 -43.6561C23.8979 -66.7807 12.5437 -60.2096 -2.67131 -34.049C-21.1082 -2.76189 -27.774 24.5437 -25.5473 61.2679C-22.5537 108.339 -15.8676 114.111 -11.7244 72.8182Z" fill="#EBDBCC" fill-opacity="0.3"/>
<path d="M358.047 86.617C365.054 60.2316 364.955 35.8304 358.261 6.15191C352.749 -18.3197 333.296 -59.5855 327.467 -59.6613C326.218 -59.6776 328.93 -44.0679 333.67 -24.2786C338.833 -5.00296 344.606 31.4125 346.767 57.398C348.934 82.8644 351.149 104.697 351.975 105.227C352.794 106.276 355.401 98.0038 358.047 86.617Z" fill="#EBDBCC" fill-opacity="0.3"/>
</svg>
