<svg width="18" height="18" viewBox="0 0 18 18" fill="none" xmlns="http://www.w3.org/2000/svg">
<path d="M14.0271 12.8475L17.7747 16.4159L16.5366 17.595L12.7899 14.0259C11.3958 15.0902 9.66175 15.6691 7.875 15.6667C3.528 15.6667 0 12.3067 0 8.16669C0 4.02669 3.528 0.666687 7.875 0.666687C12.222 0.666687 15.75 4.02669 15.75 8.16669C15.7525 9.86835 15.1447 11.5198 14.0271 12.8475ZM12.2719 12.2292C13.3823 11.1416 14.0025 9.68371 14 8.16669C14 4.94335 11.2586 2.33335 7.875 2.33335C4.4905 2.33335 1.75 4.94335 1.75 8.16669C1.75 11.3892 4.4905 14 7.875 14C9.46788 14.0024 10.9986 13.4118 12.1406 12.3542L12.2719 12.2292Z" fill="#222325"/>
</svg>
